Coordinates
version=1
nRows=5
nColumns=40
inDegrees=yes

Units are S.I. units (second, meters, Newtons, ...)
Angles are in degrees.

endheader
time	pelvis_tilt	pelvis_list	pelvis_rotation	pelvis_tx	pelvis_ty	pelvis_tz	hip_flexion_r	hip_adduction_r	hip_rotation_r	knee_angle_r	knee_angle_r_beta	ankle_angle_r	subtalar_angle_r	mtp_angle_r	hip_flexion_l	hip_adduction_l	hip_rotation_l	knee_angle_l	knee_angle_l_beta	ankle_angle_l	subtalar_angle_l	mtp_angle_l	lumbar_extension	lumbar_bending	lumbar_rotation	arm_flex_r	arm_add_r	arm_rot_r	elbow_flex_r	pro_sup_r	wrist_flex_r	wrist_dev_r	arm_flex_l	arm_add_l	arm_rot_l	elbow_flex_l	pro_sup_l	wrist_flex_l	wrist_dev_l
     12.08650000	     -5.13255789	     -3.70532910	     13.21668244	      1.06347351	      0.92121052	      0.50030314	     11.34370947	      4.09701825	    -11.92270993	     21.38899297	     21.38899297	     17.85789104	     -3.63762833	     -0.85260808	     32.18797923	     -7.09178236	      3.31776461	     20.75478874	     20.75478874	      0.89535821	     -4.02767310	      4.17139616	    -11.54930823	      4.62058875	      2.20228067	     66.52013655	    -14.03687717	      2.97267369	     94.33518934	     44.15230537	      0.00000000	      0.00000000	    -15.74056296	     -8.84749973	     19.53606092	     34.49197514	     43.17955003	      0.00000000	      0.00000000
     12.10800000	     -5.32899197	     -3.92158035	     12.76769172	      1.06290669	      0.92031441	      0.49867072	     11.33614954	      4.21648961	    -11.74805400	     21.44569700	     21.44569700	     18.12792436	     -3.24190512	     -0.87435209	     31.78321238	     -7.27704255	      3.50658200	     20.40180154	     20.40180154	      0.09520208	     -4.43011671	      2.22805958	    -11.56083232	      4.62190429	      2.84503626	     67.19520229	    -14.39093390	      3.55094737	     96.55879429	     44.14268775	      0.00000000	      0.00000000	    -15.37322222	     -9.04299698	     20.93144441	     34.30312953	     43.16364787	      0.00000000	      0.00000000
     12.12950000	     -5.50145269	     -4.14329676	     12.35059364	      1.06247129	      0.91929192	      0.49677613	     11.35708067	      4.34546115	    -11.45546403	     21.61607972	     21.61607972	     18.40195839	     -3.08625799	     -0.96494047	     31.46697613	     -7.45731916	      3.64970408	     20.40850774	     20.40850774	      0.13944585	     -4.54930124	      2.04033635	    -11.57115174	      4.66367435	      2.73908690	     67.95864100	    -13.60841296	      3.86807435	     97.63006322	     44.11922968	      0.00000000	      0.00000000	    -15.39552664	     -9.06545897	     21.25969066	     34.15983603	     43.15819274	      0.00000000	      0.00000000
     12.15100000	     -5.69634361	     -4.37145097	     11.94361842	      1.06225151	      0.91823961	      0.49463295	     11.35557519	      4.47335828	    -11.14129024	     21.72372227	     21.72372227	     18.65979361	     -2.93497078	     -1.08624935	     31.14692775	     -7.62327457	      3.80846083	     20.42918642	     20.42918642	      0.38889678	     -4.60980208	      1.94496100	    -11.44431498	      4.63024070	      2.80161496	     68.27551165	    -13.37878151	      3.95081031	     97.90966914	     44.11075447	      0.00000000	      0.00000000	    -15.32936570	     -9.21037192	     21.26882621	     34.12353388	     43.16109951	      0.00000000	      0.00000000
     12.17250000	     -5.80873915	     -4.55126033	     11.54065705	      1.06195229	      0.91722080	      0.49201058	     11.46683245	      4.47991515	    -10.86147220	     22.26614115	     22.26614115	     19.08244069	     -2.87037979	     -0.81729690	     30.81130897	     -7.68417213	      4.07459671	     20.56025090	     20.56025090	      0.32032921	     -5.27818121	      1.34794168	    -11.64600475	      4.74416148	      3.04975587	     68.70846203	    -13.21416089	      4.63371611	    100.64368664	     44.07323927	      0.00000000	      0.00000000	    -14.94409235	     -9.44441968	     22.27493843	     33.68437921	     43.17187086	      0.00000000	      0.00000000
